<?xml version="1.0" encoding="UTF-8"?>
<svg id="Layer_1" data-name="Layer 1" xmlns="http://www.w3.org/2000/svg" xmlns:xlink="http://www.w3.org/1999/xlink" viewBox="0 0 408 408">
  <defs>
    <style>
      .cls-1 {
        fill: url(#linear-gradient);
      }

      .cls-1, .cls-2 {
        stroke-width: 0px;
      }

      .cls-2 {
        fill: #fff;
      }
    </style>
    <linearGradient id="linear-gradient" x1="10.88" y1="10.88" x2="387.17" y2="387.17" gradientUnits="userSpaceOnUse">
      <stop offset="0" stop-color="#9a9775"/>
      <stop offset="1" stop-color="#605848"/>
    </linearGradient>
  </defs>
  <rect class="cls-1" width="408" height="408" rx="54.14" ry="54.14"/>
  <path class="cls-2" d="M231.76,270.09c-5.43,3.21-10.79,6.52-16.31,9.57-2.11,1.16-3.19,2.35-3.04,4.93.25,4.12.07,8.26.07,13.05,31.52-18.19,62.5-36.08,93.99-54.25,0,6.61-.02,12.66.02,18.71,0,1.4-1.04,1.77-1.94,2.29-20.54,11.86-41.08,23.7-61.63,35.54-12.17,7.02-24.38,13.99-36.49,21.1-1.76,1.04-3.09,1.47-4.75.07-.72-.6-1.61-1.05-2.49-1.39-3.24-1.26-3.94-3.53-3.93-6.94.16-33.34.06-66.68.15-100.02,0-2.69-.53-4.44-3.12-5.62-2.7-1.23-5.26-2.81-7.75-4.43-2.81-1.83-3.19-.86-3.18,2.03.12,27.13.13,54.25.16,81.38,0,7.59,0,15.18,0,23.32-5.65-3.24-10.75-6.24-15.94-9.09-1.89-1.04-1.28-2.65-1.28-4.09-.07-33.82-.14-67.64-.07-101.45,0-2.91-.81-4.55-3.43-5.82-3.59-1.74-6.97-3.94-10.83-6.16v108.52c-5.85-3.48-11.22-6.68-16.59-9.88-.46-.77-.3-1.63-.3-2.45.04-34.74-.12-69.49.11-104.23.01-1.67-.35-2.74-1.9-3.37-1.33-.54-2.52-1.36-3.88-1.83-2.69-1.44-5.39-2.87-8.25-4.4-.8,1.49-.41,3.04-.41,4.5-.02,33.22-.01,66.45-.01,99.67,0,3.84-.01,3.86-3.37,1.94-4.03-2.31-8.02-4.7-12.1-6.92-1.46-.79-1.96-1.75-1.95-3.39.04-37.89.05-75.77,0-113.66,0-1.81.76-2.64,2.1-3.69,4.35-3.42,7.98-3.25,12.96-.3,28.4,16.82,57.09,33.16,85.68,49.68,1.04.6,1.9,1.25,3.24.43,4.15-2.54,8.39-4.94,13.02-7.64-31.39-18.13-62.4-36.03-93.84-54.19,5.61-3.25,10.87-6.25,16.07-9.35,1.2-.72,1.93-.14,2.86.4,12.69,7.33,25.41,14.62,38.1,21.95,17.31,9.99,34.63,19.97,51.91,30.02,1.48.86,2.57,1.12,4.16.13,3.83-2.4,7.8-4.55,12.16-7.05-8.74-5.06-17.13-9.92-25.53-14.77-18.79-10.84-37.59-21.68-56.37-32.52-.51-.29-.94-.71-1.41-1.07-1.09-1-2.22-1.92-3.76-2.15-.56.02-1.1,0-1.28-.69-1-1.08-2.46-1.43-3.64-2.22-1.16-.23-2.07-.68-.5-1.61,4.92-2.92,9.91-5.73,14.84-8.63,1.4-.83,2.27.24,3.22.78,29.73,17.14,59.45,34.29,89.12,51.53,1.95,1.13,3.32,1.12,5.15-.05,3.5-2.23,7.16-4.22,10.96-6.43-21.27-12.39-42.26-24.62-63.25-36.85-.58-1.13-1.86-1.09-2.78-1.66h-.01c-1.15-.84-2.22-1.81-3.68-2.11-7.92-4.47-15.84-8.93-24.2-13.65,5.64-3.25,10.85-6.2,16-9.23,1.39-.82,2.38-.17,3.5.49,30.23,17.47,60.46,34.93,90.7,52.39,1.44.83,2.79,1.95,4.34,2.47,4.81,1.61,5.88,4.93,5.47,9.63-.22,2.55-.88,3.95-3.14,5.25-29.26,16.77-58.45,33.68-87.7,50.47-2.42,1.39-3.65,2.87-3.36,5.8.3,2.96.18,5.97.03,8.95-.13,2.61.2,3.48,2.95,1.88,20.28-11.83,40.62-23.54,60.95-35.28,9.49-5.48,19-10.93,28.49-16.41.41-.24.75-.58,1.64-.21,0,5.88,0,11.92,0,17.97,0,1.75-1.55,2-2.59,2.6-10.29,5.92-20.65,11.71-30.93,17.65-19.26,11.13-38.46,22.35-57.73,33.45-2.12,1.22-2.95,2.63-2.81,5.1.23,4.05.06,8.12.06,12.94,31.36-18.1,62.34-35.98,94-54.25,0,4.84-.38,9.31.1,13.68.53,4.73-1.29,7.14-5.37,9.38-13.35,7.33-26.44,15.14-39.64,22.74-1.99,1.14-4.05,2.15-6.09,3.22-1.25.7-2.64,1.15-3.71,2.16-3.52,2.55-7.36,4.54-11.23,6.49-1.61.77-3.39,1.25-4.6,2.71l-.04.02c-1.55.53-3.06,1.11-4.16,2.41Z"/>
</svg>